<svg xmlns="http://www.w3.org/2000/svg" xmlns:xlink="http://www.w3.org/1999/xlink" preserveAspectRatio="xMidYMid" width="80" height="80" viewBox="0 0 80 80">
  <defs>
    <style>
      .cls-1 {
        fill: #324251;
        fill-rule: evenodd;
      }
    </style>
  </defs>
  <path d="M63.645,54.258 L63.645,66.000 L18.355,66.000 L18.355,54.258 L15.000,54.258 L15.000,14.000 L67.000,14.000 L67.000,54.258 L63.645,54.258 ZM20.032,64.322 L23.644,64.322 L25.436,64.322 L29.428,64.322 L52.572,64.322 L56.564,64.322 L58.355,64.322 L61.968,64.322 L61.968,25.742 L20.032,25.742 L20.032,64.322 ZM65.322,15.677 L16.677,15.677 L16.677,20.710 L65.322,20.710 L65.322,15.677 ZM65.322,22.387 L16.677,22.387 L16.677,52.580 L18.355,52.580 L18.355,24.064 L63.645,24.064 L63.645,52.580 L65.322,52.580 L65.322,22.387 ZM20.032,19.032 L18.355,19.032 L18.355,17.355 L20.032,17.355 L20.032,19.032 ZM23.387,19.032 L21.710,19.032 L21.710,17.355 L23.387,17.355 L23.387,19.032 ZM26.742,19.032 L25.064,19.032 L25.064,17.355 L26.742,17.355 L26.742,19.032 ZM42.000,48.000 L52.000,48.000 L52.000,50.000 L42.000,50.000 L42.000,48.000 ZM32.754,47.303 L38.766,43.833 L32.754,40.047 L32.754,37.938 L41.482,43.297 L41.482,44.554 L32.754,49.403 L32.754,47.303 Z" class="cls-1"/>
</svg>
