<svg xmlns="http://www.w3.org/2000/svg" xmlns:xlink="http://www.w3.org/1999/xlink" preserveAspectRatio="xMidYMid" width="80" height="80" viewBox="0 0 80 80">
  <defs>
    <style>
      .cls-1 {
        fill: #324251;
        fill-rule: evenodd;
      }
    </style>
  </defs>
  <path d="M57.794,43.596 C57.794,44.775 57.970,45.951 58.144,47.131 C58.319,48.312 58.494,49.531 58.494,50.711 C58.494,55.117 55.744,56.693 52.163,56.693 L51.246,56.693 L51.246,54.289 L51.990,54.289 C54.433,54.248 55.482,52.936 55.482,50.494 C55.482,49.445 55.306,48.439 55.177,47.348 C54.999,46.303 54.825,45.214 54.825,44.031 C54.825,41.239 56.048,39.752 57.970,39.272 L57.970,39.188 C56.048,38.662 54.825,37.264 54.825,34.471 C54.825,33.296 54.999,32.247 55.177,31.155 C55.306,30.106 55.482,29.059 55.482,28.055 C55.482,25.698 54.566,24.344 52.033,24.303 L51.246,24.303 L51.246,21.899 L52.120,21.899 C55.829,21.899 58.494,23.602 58.494,27.620 C58.494,28.843 58.319,30.022 58.144,31.245 C57.970,32.464 57.794,33.684 57.794,34.909 C57.794,36.436 58.231,38.139 61.331,38.139 L61.331,40.364 C58.232,40.364 57.794,42.240 57.794,43.596 ZM40.564,46.528 C40.001,46.528 39.572,46.367 39.275,46.047 C38.978,45.727 38.829,45.285 38.829,44.723 C38.829,44.153 38.978,43.715 39.275,43.410 C39.572,43.106 40.001,42.953 40.564,42.953 C41.134,42.953 41.567,43.112 41.864,43.428 C42.161,43.744 42.310,44.176 42.310,44.723 C42.310,45.278 42.159,45.717 41.859,46.041 C41.558,46.365 41.126,46.528 40.564,46.528 ZM40.564,36.520 C40.001,36.520 39.572,36.360 39.275,36.039 C38.978,35.719 38.829,35.278 38.829,34.715 C38.829,33.535 39.407,32.946 40.564,32.946 C41.150,32.946 41.587,33.102 41.876,33.414 C42.165,33.727 42.310,34.160 42.310,34.715 C42.310,35.270 42.159,35.709 41.859,36.033 C41.558,36.358 41.126,36.520 40.564,36.520 ZM22.552,50.711 C22.552,49.531 22.728,48.312 22.903,47.131 C23.078,45.951 23.251,44.775 23.251,43.596 C23.251,42.240 22.816,40.363 19.716,40.364 L19.716,38.139 C22.816,38.139 23.251,36.436 23.251,34.909 C23.251,33.684 23.078,32.464 22.903,31.245 C22.728,30.022 22.552,28.843 22.552,27.620 C22.552,23.602 25.173,21.899 28.882,21.899 L29.800,21.899 L29.800,24.303 L29.015,24.303 C26.437,24.303 25.565,25.698 25.565,28.055 C25.565,29.059 25.697,30.106 25.871,31.155 C26.046,32.246 26.177,33.295 26.177,34.471 C26.220,37.264 24.997,38.663 23.033,39.188 L23.033,39.272 C24.997,39.753 26.222,41.239 26.177,44.031 C26.177,45.213 26.046,46.303 25.871,47.348 C25.697,48.439 25.565,49.445 25.565,50.494 C25.565,52.936 26.570,54.289 29.015,54.289 L29.800,54.289 L29.800,56.693 L28.882,56.693 C25.259,56.693 22.552,55.117 22.552,50.711 Z" class="cls-1"/>
</svg>
