<svg xmlns="http://www.w3.org/2000/svg" xmlns:xlink="http://www.w3.org/1999/xlink" preserveAspectRatio="xMidYMid" width="80" height="80" viewBox="0 0 80 80">
  <defs>
    <style>
      .cls-1 {
        fill: #324251;
        fill-rule: evenodd;
      }
    </style>
  </defs>
  <path d="M16.000,29.056 C16.000,28.493 16.000,27.932 16.000,27.369 C18.090,27.369 20.181,27.369 22.324,27.369 C22.324,25.831 22.312,24.461 22.327,23.091 C22.345,21.349 23.148,20.253 24.761,19.868 C25.269,19.747 25.367,19.511 25.355,19.039 C25.334,18.198 25.319,17.351 25.379,16.513 C25.543,14.240 27.498,12.279 29.613,12.292 C29.621,13.709 29.496,15.168 30.685,16.267 C31.881,17.372 33.356,16.940 34.742,17.103 C34.762,17.403 34.619,19.118 35.513,19.837 C36.064,19.837 36.588,19.837 37.008,19.837 C37.219,18.303 37.498,16.849 37.587,15.384 C37.633,14.623 37.778,14.078 38.430,13.704 C38.717,13.539 39.061,13.362 39.214,13.089 C39.806,12.037 40.757,12.300 41.638,12.294 C41.841,12.292 42.103,12.289 42.239,12.409 C42.865,12.958 43.463,13.544 44.058,14.132 C44.178,14.250 44.307,14.422 44.323,14.581 C44.460,15.971 44.579,17.364 44.688,18.757 C44.716,19.115 44.692,19.478 44.692,19.846 C45.413,19.846 46.002,19.846 46.454,19.846 C46.691,19.326 46.934,18.920 47.064,18.477 C47.207,17.994 47.245,17.477 47.345,16.880 C47.950,16.880 48.574,16.886 49.198,16.878 C51.019,16.857 52.307,15.583 52.419,13.682 C52.453,13.122 52.449,12.560 52.462,11.999 C52.642,11.999 52.823,11.999 53.003,11.999 C56.609,13.235 57.001,16.224 56.663,19.487 C59.098,20.165 59.698,20.998 59.698,23.529 C59.698,24.706 59.698,25.882 59.698,27.182 C61.868,27.182 63.934,27.182 66.000,27.182 C66.000,27.682 66.000,28.181 66.000,28.681 C65.946,28.922 65.876,29.160 65.842,29.404 C65.405,32.520 65.051,35.652 64.514,38.750 C64.112,41.075 63.493,43.361 62.940,45.656 C62.586,47.127 61.674,48.117 60.308,48.625 C58.439,49.319 56.229,48.477 55.521,46.759 C56.239,46.759 56.924,46.780 57.607,46.754 C58.915,46.704 59.843,45.763 59.821,44.542 C59.800,43.318 58.859,42.412 57.550,42.376 C56.875,42.357 56.199,42.372 55.384,42.372 C56.545,40.550 58.114,40.122 59.884,40.313 C60.131,38.879 60.045,37.725 58.780,36.891 C58.165,36.485 57.684,35.824 57.220,35.214 C55.002,32.304 53.470,29.127 53.716,25.270 C53.769,24.441 53.724,23.605 53.724,22.759 C53.240,22.759 52.871,22.759 52.439,22.759 C52.439,25.071 52.459,27.316 52.420,29.560 C52.413,29.948 52.237,30.405 51.994,30.702 C51.176,31.700 50.254,32.607 49.453,33.618 C49.144,34.008 48.908,34.578 48.888,35.077 C48.820,36.792 48.862,38.511 48.862,40.229 C48.862,40.995 48.862,41.761 48.862,42.507 C51.843,42.874 53.531,44.367 53.604,46.950 C53.715,50.819 53.671,54.694 53.625,58.565 C53.608,59.955 52.639,60.831 51.283,60.917 C51.021,60.933 50.759,60.949 50.459,60.968 C50.459,62.316 50.459,65.019 50.459,65.019 C50.459,65.019 48.589,66.348 46.952,66.753 C44.877,67.267 42.929,66.884 42.929,66.884 L42.712,47.881 L39.090,47.849 C39.090,47.849 38.744,63.439 38.744,66.605 C38.744,66.631 36.877,66.865 35.047,66.753 C33.328,66.647 31.476,65.536 31.476,65.536 C31.476,65.536 31.639,62.282 31.639,60.976 C31.466,60.953 31.349,60.930 31.233,60.924 C29.257,60.833 28.476,59.994 28.475,57.951 C28.474,54.390 28.473,50.829 28.476,47.269 C28.477,45.732 29.025,44.416 30.244,43.562 C31.015,43.022 31.961,42.750 32.960,42.299 C32.960,41.181 32.965,39.874 32.959,38.566 C32.951,37.132 33.290,35.551 32.818,34.303 C32.347,33.054 31.090,32.107 30.118,31.089 C29.572,30.516 29.345,29.925 29.366,29.113 C29.419,27.062 29.383,25.008 29.383,22.877 C28.967,22.896 28.660,22.911 28.297,22.928 C28.297,23.838 28.315,24.647 28.293,25.454 C28.264,26.480 28.345,27.539 28.129,28.525 C27.377,31.973 25.706,34.935 23.098,37.189 C21.942,38.188 22.028,39.232 22.165,40.517 C24.008,40.291 25.513,40.782 26.662,42.556 C25.894,42.556 25.275,42.551 24.656,42.556 C23.201,42.569 22.240,43.433 22.230,44.733 C22.219,46.032 23.166,46.910 24.625,46.938 C25.264,46.951 25.904,46.941 26.644,46.941 C25.527,48.645 23.959,49.321 22.253,48.949 C20.556,48.579 19.343,47.265 19.011,45.473 C18.893,44.832 18.714,44.204 18.579,43.566 C17.949,40.582 17.271,37.607 16.717,34.608 C16.378,32.777 16.232,30.908 16.000,29.056 Z" class="cls-1"/>
</svg>
