<svg xmlns="http://www.w3.org/2000/svg" xmlns:xlink="http://www.w3.org/1999/xlink" preserveAspectRatio="xMidYMid" width="80" height="80" viewBox="0 0 80 80">
  <defs>
    <style>
      .cls-1 {
        fill: #324251;
        fill-rule: evenodd;
      }
    </style>
  </defs>
  <path d="M15.833,63.600 C15.830,63.596 15.827,63.593 15.824,63.590 C15.821,63.587 15.817,63.584 15.815,63.581 L15.235,61.999 C15.066,61.829 14.981,61.592 15.004,61.353 L15.368,57.624 C15.387,57.440 15.468,57.267 15.599,57.135 L36.985,35.663 C34.757,30.043 36.041,23.720 40.328,19.416 C46.192,13.528 55.732,13.528 61.595,19.416 C64.436,22.267 66.000,26.059 66.000,30.092 C66.000,34.125 64.436,37.917 61.595,40.769 C57.308,45.073 51.011,46.362 45.413,44.126 L42.631,46.918 C42.481,47.069 42.279,47.153 42.066,47.153 L40.432,47.153 L40.432,48.794 C40.432,49.006 40.348,49.210 40.198,49.361 L37.943,51.625 C37.793,51.776 37.590,51.860 37.378,51.860 L36.241,51.860 L36.241,53.001 C36.241,53.214 36.157,53.418 36.007,53.569 L33.575,56.011 C33.425,56.162 33.222,56.246 33.010,56.246 L29.387,56.246 L29.387,59.884 C29.387,60.096 29.303,60.300 29.153,60.451 L28.461,61.146 C28.311,61.297 28.108,61.381 27.895,61.381 L26.617,61.381 L26.617,62.665 C26.617,62.878 26.533,64.082 26.383,64.232 L15.833,63.600 ZM25.019,62.333 L25.019,60.579 C25.019,60.136 25.377,59.777 25.818,59.777 L27.565,59.777 L27.789,59.551 L27.789,55.444 C27.789,55.001 28.147,54.642 28.588,54.642 L32.679,54.642 L34.644,52.669 L34.644,51.058 C34.644,50.615 35.001,50.256 35.443,50.256 L37.047,50.256 L38.834,48.461 L38.834,46.351 C38.834,45.908 39.192,45.549 39.633,45.549 L41.735,45.549 L44.662,42.610 C44.895,42.376 45.248,42.310 45.549,42.443 C50.662,44.701 56.517,43.598 60.465,39.634 C63.003,37.085 64.402,33.696 64.402,30.092 C64.402,26.487 63.003,23.099 60.465,20.550 C55.225,15.288 46.698,15.288 41.458,20.550 C37.509,24.514 36.411,30.392 38.660,35.527 C38.792,35.830 38.726,36.183 38.493,36.417 L16.931,58.066 L16.685,60.591 L39.317,37.867 C39.629,37.554 40.135,37.554 40.447,37.867 C40.759,38.180 40.759,38.688 40.447,39.001 L17.519,62.023 L25.019,62.333 ZM55.864,28.695 C54.926,28.695 54.045,28.328 53.381,27.662 C52.718,26.996 52.353,26.111 52.353,25.169 C52.353,24.227 52.718,23.342 53.381,22.676 C54.044,22.010 54.926,21.644 55.864,21.644 C56.802,21.644 57.684,22.010 58.347,22.676 C59.010,23.342 59.375,24.227 59.375,25.169 C59.375,26.111 59.010,26.996 58.347,27.662 C57.683,28.328 56.802,28.695 55.864,28.695 ZM55.864,23.248 C55.353,23.248 54.872,23.448 54.511,23.811 C54.150,24.173 53.951,24.656 53.951,25.169 C53.951,25.682 54.150,26.165 54.511,26.527 C54.873,26.890 55.353,27.090 55.864,27.090 C56.375,27.090 56.856,26.890 57.217,26.528 C57.578,26.165 57.777,25.683 57.777,25.170 C57.777,24.656 57.578,24.174 57.217,23.811 C56.856,23.449 56.375,23.248 55.864,23.248 Z" class="cls-1"/>
</svg>
