<svg xmlns="http://www.w3.org/2000/svg" xmlns:xlink="http://www.w3.org/1999/xlink" preserveAspectRatio="xMidYMid" width="80" height="80" viewBox="0 0 80 80">
  <defs>
    <style>
      .cls-1 {
        fill: #324251;
        fill-rule: evenodd;
      }
    </style>
  </defs>
  <path d="M59.142,40.000 L43.258,40.000 L43.258,67.000 L41.419,67.000 L41.419,19.968 L39.581,19.968 L39.581,67.000 L37.742,67.000 L37.742,55.677 L21.858,55.677 L12.000,50.074 L12.000,47.346 L21.858,41.742 L37.742,41.742 L37.742,35.645 L21.858,35.645 L12.000,30.042 L12.000,27.313 L21.858,21.709 L37.742,21.709 L37.742,19.968 L35.903,19.968 L35.903,17.355 C35.903,14.953 37.965,13.000 40.500,13.000 C43.035,13.000 45.097,14.953 45.097,17.355 L45.097,19.968 L43.258,19.968 L43.258,26.064 L59.142,26.064 L69.000,31.667 L69.000,34.396 L59.142,40.000 ZM22.368,43.484 L13.839,48.332 L13.839,49.088 L22.368,53.935 L37.742,53.935 L37.742,43.484 L22.368,43.484 ZM22.368,23.451 L13.839,28.300 L13.839,29.055 L22.368,33.903 L37.742,33.903 L37.742,23.451 L22.368,23.451 ZM43.258,17.355 C43.258,15.914 42.021,14.742 40.500,14.742 C38.979,14.742 37.742,15.914 37.742,17.355 L37.742,18.226 L43.258,18.226 L43.258,17.355 ZM67.161,32.654 L58.632,27.806 L43.258,27.806 L43.258,38.258 L58.632,38.258 L67.161,33.410 L67.161,32.654 ZM45.097,33.903 L54.290,33.903 L54.290,35.645 L45.097,35.645 L45.097,33.903 ZM52.452,30.419 L54.290,30.419 L54.290,32.161 L52.452,32.161 L52.452,30.419 ZM45.097,30.419 L50.613,30.419 L50.613,32.161 L45.097,32.161 L45.097,30.419 ZM24.871,29.548 L35.903,29.548 L35.903,31.290 L24.871,31.290 L24.871,29.548 ZM21.193,26.064 L35.903,26.064 L35.903,27.806 L21.193,27.806 L21.193,26.064 ZM23.032,31.290 L21.193,31.290 L21.193,29.548 L23.032,29.548 L23.032,31.290 ZM26.710,49.580 L35.903,49.580 L35.903,51.322 L26.710,51.322 L26.710,49.580 ZM30.387,46.097 L35.903,46.097 L35.903,47.838 L30.387,47.838 L30.387,46.097 ZM26.710,46.097 L28.548,46.097 L28.548,47.838 L26.710,47.838 L26.710,46.097 Z" class="cls-1"/>
</svg>
