<svg xmlns="http://www.w3.org/2000/svg" xmlns:xlink="http://www.w3.org/1999/xlink" preserveAspectRatio="xMidYMid" width="80" height="80" viewBox="0 0 80 80">
  <defs>
    <style>
      .cls-1 {
        fill: #324251;
        fill-rule: evenodd;
      }
    </style>
  </defs>
  <path d="M63.219,27.275 L55.514,27.275 L55.514,33.613 C55.514,34.031 55.164,34.370 54.733,34.370 C54.301,34.370 53.952,34.031 53.952,33.613 C53.952,32.443 53.948,20.420 53.948,20.381 L53.947,18.847 C53.947,18.246 54.061,17.654 54.294,17.074 C54.295,17.073 54.295,17.072 54.296,17.071 C54.517,16.506 54.904,15.934 55.318,15.515 L28.225,15.515 C27.794,15.515 27.444,15.175 27.444,14.757 C27.444,14.339 27.794,14.000 28.225,14.000 C30.739,14.000 58.304,14.000 59.001,14.000 C61.758,14.000 64.000,16.174 64.000,18.847 L64.000,26.518 C64.000,26.936 63.650,27.275 63.219,27.275 ZM62.438,18.847 C62.438,17.009 60.896,15.515 59.001,15.515 L58.945,15.515 C57.099,15.515 55.510,16.913 55.510,18.847 L55.510,20.380 L55.514,25.760 L62.438,25.760 L62.438,18.847 ZM47.957,47.556 L28.746,47.556 C28.314,47.556 27.965,47.217 27.965,46.799 C27.965,46.381 28.315,46.042 28.746,46.042 L47.957,46.042 C48.388,46.042 48.738,46.381 48.738,46.799 C48.738,47.217 48.388,47.556 47.957,47.556 ZM47.957,41.346 L28.746,41.346 C28.314,41.346 27.965,41.007 27.965,40.589 C27.965,40.170 28.315,39.831 28.746,39.831 L47.957,39.831 C48.388,39.831 48.738,40.170 48.738,40.589 C48.738,41.007 48.388,41.346 47.957,41.346 ZM47.957,28.926 L28.746,28.926 C28.314,28.926 27.965,28.587 27.965,28.168 C27.965,27.750 28.315,27.411 28.746,27.411 L47.957,27.411 C48.388,27.411 48.738,27.750 48.738,28.168 C48.738,28.587 48.388,28.926 47.957,28.926 ZM47.957,35.136 L28.746,35.136 C28.314,35.136 27.965,34.797 27.965,34.378 C27.965,33.960 28.315,33.621 28.746,33.621 L47.957,33.621 C48.388,33.621 48.738,33.960 48.738,34.378 C48.738,34.797 48.388,35.136 47.957,35.136 ZM25.406,15.751 C23.851,16.307 22.805,17.761 22.805,19.370 L22.805,51.723 L46.201,51.723 C46.634,51.723 46.982,52.062 46.982,52.481 L46.982,54.754 C46.982,55.172 46.632,55.511 46.201,55.511 C45.770,55.511 45.420,55.172 45.420,54.754 L45.420,53.238 C41.258,53.238 21.951,53.238 18.562,53.238 L18.562,60.151 C18.562,61.737 19.710,63.068 21.243,63.402 C21.806,63.524 19.698,63.480 46.791,63.484 C45.938,62.610 45.420,61.433 45.420,60.151 L45.420,57.783 C45.420,57.364 45.769,57.026 46.201,57.026 C46.632,57.026 46.982,57.364 46.982,57.783 L46.982,60.151 C46.982,61.832 48.278,63.254 49.997,63.458 C49.997,63.458 50.172,63.479 50.350,63.485 C52.336,63.485 53.952,61.918 53.952,59.992 L53.952,36.642 C53.952,36.223 54.301,35.885 54.733,35.885 C55.164,35.885 55.514,36.223 55.514,36.642 L55.514,59.992 C55.514,62.753 53.197,65.000 50.350,65.000 C47.645,65.000 24.732,65.000 22.024,65.000 C19.205,65.000 17.000,62.795 17.000,60.151 L17.000,52.481 C17.000,52.063 17.350,51.723 17.781,51.723 L21.243,51.723 L21.243,19.370 C21.243,17.130 22.699,15.104 24.866,14.330 C25.271,14.185 25.720,14.385 25.869,14.778 C26.019,15.171 25.811,15.606 25.406,15.751 Z" class="cls-1"/>
</svg>
