<svg xmlns="http://www.w3.org/2000/svg" xmlns:xlink="http://www.w3.org/1999/xlink" preserveAspectRatio="xMidYMid" width="80" height="80" viewBox="0 0 80 80">
  <defs>
    <style>
      .cls-1 {
        fill: #324251;
        fill-rule: evenodd;
      }

      .cls-2 {
        fill: #fff;
      }
    </style>
  </defs>
  <path d="M12.000,66.258 L12.000,16.000 L64.000,16.000 L64.000,66.258 L12.000,66.258 ZM62.322,17.677 L13.677,17.677 L13.677,22.709 L62.322,22.709 L62.322,17.677 ZM62.322,24.387 L13.677,24.387 L13.677,64.580 L62.322,64.580 L62.322,24.387 ZM25.571,31.318 L18.000,31.318 L18.000,30.000 L25.571,30.000 L25.571,31.318 ZM25.571,35.273 L18.000,35.273 L18.000,33.954 L25.571,33.954 L25.571,35.273 ZM26.000,39.227 L18.000,39.227 L18.000,37.909 L26.000,37.909 L26.000,39.227 ZM26.000,43.182 L18.000,43.182 L18.000,41.864 L26.000,41.864 L26.000,43.182 ZM26.000,47.136 L18.000,47.136 L18.000,45.818 L26.000,45.818 L26.000,47.136 ZM26.000,51.091 L18.000,51.091 L18.000,49.773 L26.000,49.773 L26.000,51.091 ZM26.000,55.045 L18.000,55.045 L18.000,53.727 L26.000,53.727 L26.000,55.045 ZM41.571,31.318 L31.000,31.318 L31.000,30.000 L41.571,30.000 L41.571,31.318 ZM52.571,35.273 L31.000,35.273 L31.000,33.954 L52.571,33.954 L52.571,35.273 ZM57.000,39.227 L31.000,39.227 L31.000,37.909 L57.000,37.909 L57.000,39.227 ZM57.000,43.182 L31.000,43.182 L31.000,41.864 L57.000,41.864 L57.000,43.182 ZM57.000,47.136 L31.000,47.136 L31.000,45.818 L57.000,45.818 L57.000,47.136 ZM57.000,51.091 L31.000,51.091 L31.000,49.773 L57.000,49.773 L57.000,51.091 ZM57.000,55.045 L31.000,55.045 L31.000,53.727 L57.000,53.727 L57.000,55.045 ZM43.786,59.000 L31.000,59.000 L31.000,57.682 L43.786,57.682 L43.786,59.000 ZM17.032,21.032 L15.355,21.032 L15.355,19.355 L17.032,19.355 L17.032,21.032 ZM20.387,21.032 L18.710,21.032 L18.710,19.355 L20.387,19.355 L20.387,21.032 ZM23.742,21.032 L22.064,21.032 L22.064,19.355 L23.742,19.355 L23.742,21.032 Z" class="cls-1"/>
  <circle cx="63" cy="24" r="13" class="cls-2"/>
  <path d="M73.224,26.295 L71.785,26.295 C71.577,27.110 71.255,27.869 70.838,28.590 L71.861,29.614 C72.163,29.917 72.163,30.410 71.861,30.714 L69.721,32.857 C69.418,33.160 68.926,33.160 68.623,32.857 L67.601,31.833 C66.881,32.250 66.124,32.572 65.310,32.781 L65.310,34.222 C65.310,34.659 64.969,35.000 64.533,35.000 L61.504,35.000 C61.069,35.000 60.728,34.659 60.728,34.222 L60.728,32.800 C59.914,32.591 59.138,32.269 58.418,31.852 L57.415,32.857 C57.112,33.160 56.620,33.160 56.317,32.857 L54.177,30.714 C53.874,30.410 53.874,29.917 54.177,29.614 L55.162,28.628 C54.726,27.907 54.404,27.129 54.196,26.314 L52.776,26.314 C52.341,26.314 52.000,25.972 52.000,25.536 L52.000,22.502 C52.000,22.065 52.341,21.724 52.776,21.724 L54.177,21.724 C54.386,20.890 54.707,20.112 55.143,19.391 L54.158,18.405 C53.855,18.102 53.855,17.609 54.158,17.305 L56.298,15.143 C56.601,14.840 57.093,14.840 57.396,15.143 L58.399,16.148 C59.119,15.731 59.895,15.409 60.709,15.200 L60.709,13.777 C60.709,13.341 61.050,13.000 61.485,13.000 L64.515,13.000 C64.950,13.000 65.291,13.341 65.291,13.777 L65.291,15.200 C66.105,15.428 66.881,15.750 67.601,16.167 L68.604,15.162 C68.907,14.859 69.399,14.859 69.702,15.162 L71.861,17.286 C72.163,17.590 72.163,18.083 71.861,18.386 L70.838,19.410 C71.255,20.131 71.577,20.890 71.785,21.705 L73.224,21.705 C73.659,21.705 74.000,22.047 74.000,22.483 L74.000,25.517 C74.000,25.953 73.659,26.295 73.224,26.295 ZM72.410,23.260 L71.122,23.260 C70.762,23.260 70.441,22.976 70.365,22.615 C70.157,21.572 69.759,20.605 69.172,19.733 C68.964,19.429 69.002,19.012 69.267,18.747 L70.175,17.836 L69.134,16.793 L68.225,17.703 C67.960,17.969 67.544,18.007 67.241,17.798 C66.370,17.210 65.404,16.793 64.363,16.603 C64.003,16.546 63.738,16.224 63.738,15.845 L63.738,14.574 L62.262,14.574 L62.262,15.845 C62.262,16.224 61.978,16.528 61.618,16.603 C60.577,16.793 59.592,17.191 58.721,17.798 C58.418,18.007 58.002,17.969 57.737,17.703 L56.847,16.812 L55.805,17.855 L56.676,18.747 C56.941,19.012 56.979,19.429 56.771,19.733 C56.184,20.605 55.768,21.572 55.578,22.634 C55.502,23.014 55.181,23.279 54.821,23.298 L53.571,23.298 L53.571,24.778 L54.821,24.778 C55.200,24.778 55.502,25.043 55.578,25.403 C55.786,26.446 56.184,27.433 56.790,28.305 C56.998,28.609 56.960,29.026 56.695,29.291 L55.805,30.183 L56.847,31.169 L57.737,30.278 C58.002,30.012 58.418,29.974 58.721,30.183 C59.592,30.790 60.558,31.188 61.618,31.378 C61.997,31.434 62.262,31.757 62.262,32.136 L62.262,33.407 L63.738,33.407 L63.738,32.136 C63.738,31.776 64.003,31.453 64.363,31.378 C65.404,31.188 66.370,30.790 67.241,30.183 C67.544,29.974 67.960,30.012 68.225,30.278 L69.134,31.188 L70.175,30.145 L69.267,29.234 C69.002,28.969 68.964,28.552 69.172,28.248 C69.778,27.376 70.175,26.409 70.365,25.365 C70.422,25.005 70.743,24.740 71.122,24.740 L72.410,24.740 L72.410,23.260 ZM62.981,29.462 C60.046,29.462 57.661,27.072 57.661,24.133 C57.661,21.193 60.046,18.803 62.981,18.803 C65.916,18.803 68.301,21.193 68.301,24.133 C68.301,27.072 65.916,29.462 62.981,29.462 ZM62.981,20.359 C60.898,20.359 59.213,22.047 59.213,24.133 C59.213,26.219 60.898,27.907 62.981,27.907 C65.064,27.907 66.749,26.219 66.749,24.133 C66.749,22.047 65.064,20.359 62.981,20.359 Z" class="cls-1"/>
</svg>
