<svg xmlns="http://www.w3.org/2000/svg" xmlns:xlink="http://www.w3.org/1999/xlink" preserveAspectRatio="xMidYMid" width="80" height="80" viewBox="0 0 80 80">
  <defs>
    <style>
      .cls-1 {
        fill: #324251;
        fill-rule: evenodd;
      }
    </style>
  </defs>
  <path d="M79.505,51.154 L61.262,57.953 L61.262,57.952 C61.178,57.983 61.089,58.000 61.000,58.000 C60.912,58.000 60.823,57.984 60.738,57.953 L42.495,51.154 C42.197,51.043 42.000,50.757 42.000,50.437 L42.000,28.562 C42.000,28.312 42.121,28.078 42.324,27.935 C42.378,27.898 42.435,27.868 42.495,27.846 L42.495,27.845 L60.738,21.046 C60.907,20.983 61.093,20.983 61.262,21.046 L79.505,27.845 C79.802,27.956 80.000,28.242 80.000,28.562 L80.000,50.437 C80.000,50.757 79.802,51.043 79.505,51.154 ZM43.514,49.904 L60.243,56.138 L60.243,35.894 L56.609,34.540 L46.920,30.929 L43.514,29.659 L43.514,49.904 ZM61.000,22.579 L44.944,28.562 L47.669,29.578 L58.031,33.440 L61.000,34.546 L77.056,28.563 L61.000,22.579 ZM78.486,29.659 L61.757,35.894 L61.757,56.138 L78.486,49.904 L78.486,29.659 ZM65.916,51.321 C66.308,51.175 66.744,51.377 66.888,51.774 C67.033,52.170 66.832,52.609 66.440,52.755 L66.107,52.880 C66.020,52.912 65.932,52.927 65.845,52.927 C65.537,52.927 65.247,52.736 65.134,52.427 C64.990,52.031 65.190,51.591 65.583,51.445 L65.916,51.321 ZM75.953,47.580 C76.345,47.434 76.780,47.637 76.925,48.033 C77.070,48.429 76.869,48.869 76.477,49.015 L68.605,51.949 C68.518,51.981 68.430,51.996 68.343,51.996 C68.035,51.996 67.745,51.805 67.632,51.496 C67.488,51.100 67.688,50.660 68.081,50.514 L75.953,47.580 ZM70.256,48.218 C70.169,48.250 70.081,48.265 69.994,48.265 C69.686,48.265 69.396,48.074 69.284,47.765 C69.139,47.369 69.339,46.930 69.732,46.783 L75.953,44.465 C76.345,44.319 76.780,44.521 76.925,44.917 C77.070,45.314 76.869,45.753 76.477,45.899 L70.256,48.218 ZM70.256,45.135 C70.169,45.167 70.081,45.182 69.994,45.182 C69.686,45.182 69.396,44.991 69.284,44.682 C69.139,44.286 69.339,43.846 69.732,43.700 L75.953,41.382 C76.345,41.236 76.780,41.438 76.925,41.834 C77.070,42.230 76.869,42.670 76.477,42.816 L70.256,45.135 ZM20.262,57.953 L20.262,57.952 C20.178,57.983 20.089,58.000 20.000,58.000 C19.912,58.000 19.823,57.984 19.738,57.953 L1.495,51.154 C1.197,51.043 1.000,50.757 1.000,50.437 L1.000,28.562 C1.000,28.312 1.121,28.078 1.324,27.935 C1.378,27.898 1.435,27.868 1.495,27.846 L1.495,27.845 L19.738,21.046 C19.907,20.983 20.093,20.983 20.262,21.046 L38.505,27.845 C38.802,27.956 39.000,28.242 39.000,28.562 L39.000,50.437 C39.000,50.757 38.802,51.043 38.505,51.154 L20.262,57.953 ZM2.514,49.904 L19.243,56.138 L19.243,35.894 L15.609,34.540 L5.920,30.929 L2.514,29.659 L2.514,49.904 ZM20.000,22.579 L3.944,28.562 L6.669,29.578 L17.031,33.440 L20.000,34.546 L36.056,28.563 L20.000,22.579 ZM37.486,29.659 L20.757,35.894 L20.757,56.138 L37.486,49.904 L37.486,29.659 ZM24.916,51.321 C25.308,51.175 25.744,51.377 25.888,51.774 C26.033,52.170 25.832,52.609 25.440,52.755 L25.107,52.880 C25.020,52.912 24.932,52.927 24.845,52.927 C24.537,52.927 24.247,52.736 24.134,52.427 C23.990,52.031 24.190,51.591 24.583,51.445 L24.916,51.321 ZM34.953,47.580 C35.345,47.434 35.780,47.637 35.925,48.033 C36.070,48.429 35.869,48.869 35.477,49.015 L27.605,51.949 C27.518,51.981 27.430,51.996 27.343,51.996 C27.035,51.996 26.745,51.805 26.632,51.496 C26.488,51.100 26.688,50.660 27.080,50.514 L34.953,47.580 ZM29.256,48.218 C29.169,48.250 29.081,48.265 28.994,48.265 C28.686,48.265 28.396,48.074 28.283,47.765 C28.139,47.369 28.339,46.930 28.732,46.783 L34.953,44.465 C35.345,44.319 35.780,44.521 35.925,44.917 C36.070,45.314 35.869,45.753 35.477,45.899 L29.256,48.218 ZM29.256,45.135 C29.169,45.167 29.081,45.182 28.994,45.182 C28.686,45.182 28.396,44.991 28.283,44.682 C28.139,44.286 28.339,43.846 28.732,43.700 L34.953,41.382 C35.345,41.236 35.780,41.438 35.925,41.834 C36.070,42.230 35.869,42.670 35.477,42.816 L29.256,45.135 Z" class="cls-1"/>
</svg>
