<svg xmlns="http://www.w3.org/2000/svg" xmlns:xlink="http://www.w3.org/1999/xlink" preserveAspectRatio="xMidYMid" width="175" height="31" viewBox="0 0 175 31">
  <defs>
    <style>
      .cls-1 {
        fill: #09518f;
        fill-rule: evenodd;
      }
    </style>
  </defs>
  <path d="M173.675,12.713 C173.007,12.396 172.336,12.119 171.660,11.883 C170.985,11.647 170.322,11.529 169.671,11.529 C168.246,11.529 167.144,12.064 166.363,13.134 C165.581,14.204 165.191,15.696 165.191,17.608 C165.191,21.588 166.684,23.577 169.671,23.577 C170.924,23.577 172.442,23.264 174.224,22.637 L174.224,25.811 C172.759,26.421 171.123,26.727 169.317,26.727 C166.721,26.727 164.735,25.939 163.360,24.365 C161.984,22.790 161.297,20.530 161.297,17.584 C161.297,15.728 161.634,14.103 162.310,12.707 C162.985,11.311 163.956,10.241 165.221,9.496 C166.487,8.752 167.970,8.379 169.671,8.379 C171.404,8.379 173.145,8.799 174.895,9.637 L173.675,12.713 ZM153.814,8.636 L157.598,8.636 L157.598,26.483 L153.814,26.483 L153.814,8.636 ZM146.221,26.483 L142.437,26.483 L142.437,11.785 L137.591,11.785 L137.591,8.636 L151.067,8.636 L151.067,11.785 L146.221,11.785 L146.221,26.483 ZM131.719,22.234 L125.213,22.234 L123.919,26.483 L119.842,26.483 L126.140,8.563 L130.767,8.563 L137.090,26.483 L133.013,26.483 L131.719,22.234 ZM128.795,12.530 C128.645,12.025 128.537,11.627 128.472,11.334 C128.203,12.375 127.434,14.951 126.165,19.061 L130.816,19.061 C129.619,15.211 128.946,13.035 128.795,12.530 ZM114.068,18.035 C114.068,17.637 114.074,17.177 114.086,16.656 C114.098,16.135 114.153,14.752 114.251,12.505 L114.141,12.505 L109.539,26.483 L106.072,26.483 L101.775,12.481 L101.665,12.481 C101.820,15.329 101.897,17.230 101.897,18.182 L101.897,26.483 L98.516,26.483 L98.516,8.636 L103.667,8.636 L107.891,22.283 L107.964,22.283 L112.444,8.636 L117.595,8.636 L117.595,26.483 L114.068,26.483 L114.068,18.035 ZM90.240,8.636 L94.024,8.636 L94.024,26.483 L90.240,26.483 L90.240,8.636 ZM79.949,20.135 L78.325,20.135 L78.325,26.483 L74.541,26.483 L74.541,8.636 L80.242,8.636 C82.407,8.636 84.052,9.102 85.180,10.034 C86.307,10.965 86.870,12.355 86.870,14.202 C86.870,16.123 86.270,17.592 85.070,18.609 C83.869,19.626 82.162,20.135 79.949,20.135 ZM82.323,12.371 C81.839,11.948 81.080,11.736 80.047,11.736 L78.325,11.736 L78.325,17.034 L79.571,17.034 C80.734,17.034 81.605,16.804 82.183,16.345 C82.761,15.885 83.050,15.215 83.050,14.337 C83.050,13.450 82.807,12.794 82.323,12.371 ZM66.924,22.234 L60.418,22.234 L59.124,26.483 L55.047,26.483 L61.345,8.563 L65.972,8.563 L72.295,26.483 L68.218,26.483 L66.924,22.234 ZM64.001,12.530 C63.850,12.025 63.742,11.627 63.677,11.334 C63.408,12.375 62.639,14.951 61.370,19.061 L66.021,19.061 C64.824,15.211 64.151,13.035 64.001,12.530 Z" class="cls-1"/>
  <path d="M41.719,24.817 C41.371,26.177 40.640,27.428 39.664,28.436 C38.175,30.006 36.041,30.939 33.875,30.999 C31.469,30.985 29.062,30.996 26.656,30.993 C20.867,30.993 15.079,30.993 9.290,30.993 C7.501,30.952 5.732,30.381 4.238,29.406 C2.832,28.477 1.704,27.154 0.948,25.659 C0.453,24.664 0.155,23.577 0.040,22.475 C-0.029,21.994 0.010,21.506 0.001,21.023 C0.088,19.348 0.620,17.694 1.552,16.295 C2.483,14.896 3.780,13.731 5.301,12.997 C5.380,12.950 5.521,12.915 5.494,12.795 C5.340,11.566 5.368,10.309 5.610,9.092 C5.980,7.287 6.776,5.563 7.960,4.141 C9.046,2.839 10.420,1.770 11.960,1.050 C13.624,0.271 15.483,-0.067 17.315,0.010 C19.199,0.111 21.064,0.663 22.672,1.646 C24.238,2.604 25.583,3.929 26.519,5.505 C26.715,5.817 26.865,6.156 27.054,6.472 C27.945,5.889 28.966,5.484 30.035,5.393 C31.794,5.247 33.636,5.816 34.927,7.032 C36.075,8.116 36.852,9.617 36.942,11.200 C37.013,12.290 36.818,13.403 36.326,14.383 C36.270,14.488 36.217,14.596 36.170,14.705 C36.660,14.903 37.160,15.080 37.623,15.339 C39.268,16.206 40.559,17.668 41.315,19.349 C42.088,21.054 42.182,23.017 41.719,24.817 ZM37.935,21.906 C37.604,21.181 36.889,20.645 36.097,20.525 C35.598,20.435 35.094,20.549 34.629,20.728 C34.559,20.122 34.589,19.506 34.549,18.896 C34.390,19.038 34.258,19.207 34.110,19.359 C34.016,19.234 33.964,19.085 33.897,18.946 C33.130,17.302 32.392,15.646 31.682,13.976 C31.618,13.873 31.734,13.803 31.807,13.753 C32.303,13.418 32.699,12.913 32.827,12.323 C32.951,11.744 32.896,11.113 32.608,10.588 C32.254,9.937 31.590,9.458 30.851,9.348 C30.229,9.262 29.562,9.379 29.048,9.752 C28.713,9.986 28.466,10.318 28.253,10.661 C27.825,10.209 27.434,9.724 27.015,9.263 C26.949,9.465 26.987,9.682 26.939,9.887 C26.877,9.875 26.815,9.862 26.757,9.840 C23.458,8.577 20.147,7.344 16.819,6.158 C16.732,6.136 16.647,6.072 16.690,5.972 C16.860,5.046 16.419,4.044 15.622,3.537 C14.960,3.099 14.077,3.019 13.345,3.326 C12.862,3.525 12.446,3.882 12.180,4.330 C11.746,5.043 11.733,5.981 12.124,6.714 C12.333,7.112 12.679,7.411 13.037,7.672 C12.551,8.080 12.017,8.432 11.542,8.850 C11.766,8.891 11.997,8.886 12.216,8.955 C10.333,12.539 8.432,16.112 6.519,19.679 C6.486,19.785 6.379,19.763 6.298,19.735 C5.305,19.447 4.157,19.878 3.609,20.751 C3.149,21.441 3.079,22.373 3.449,23.117 C3.757,23.757 4.359,24.249 5.050,24.427 C5.774,24.619 6.577,24.434 7.165,23.979 C7.690,23.580 8.010,22.955 8.088,22.308 C8.580,22.671 9.027,23.092 9.505,23.473 C9.491,23.245 9.450,23.019 9.453,22.791 C9.637,22.804 9.818,22.848 9.999,22.880 C17.527,24.282 25.273,24.507 32.873,23.567 C33.021,23.554 33.169,23.509 33.319,23.526 C33.425,23.657 33.441,23.840 33.526,23.985 C33.962,24.912 35.034,25.481 36.051,25.326 C36.820,25.229 37.520,24.735 37.877,24.052 C38.234,23.398 38.252,22.579 37.935,21.906 ZM33.254,23.012 C31.401,23.278 29.531,23.426 27.663,23.533 C25.077,23.666 22.485,23.691 19.899,23.546 C16.438,23.369 12.986,22.962 9.584,22.296 C9.673,22.089 9.829,21.920 9.939,21.726 C9.333,21.808 8.739,21.978 8.134,22.074 C8.056,21.990 8.099,21.834 8.066,21.723 C8.058,21.523 7.944,21.335 7.940,21.140 C9.632,20.182 11.369,19.302 13.128,18.472 C17.150,16.578 21.322,14.999 25.593,13.757 C26.032,13.637 26.465,13.491 26.910,13.398 C26.923,13.596 26.893,13.794 26.905,13.993 C27.351,13.594 27.782,13.179 28.226,12.779 C28.484,13.195 28.790,13.603 29.229,13.844 C29.787,14.162 30.474,14.238 31.096,14.086 C31.177,14.046 31.211,14.151 31.240,14.204 C31.706,15.280 32.165,16.359 32.650,17.427 C32.973,18.164 33.334,18.884 33.647,19.625 C33.417,19.670 33.184,19.695 32.953,19.734 C33.052,19.854 33.196,19.924 33.316,20.021 C33.686,20.299 34.075,20.553 34.431,20.847 C33.904,21.208 33.467,21.736 33.342,22.373 C33.279,22.580 33.314,22.807 33.254,23.012 ZM28.128,12.533 C27.537,12.458 26.952,12.344 26.361,12.265 C26.508,12.466 26.658,12.667 26.808,12.866 C26.727,12.932 26.621,12.949 26.524,12.979 C20.016,14.779 13.725,17.353 7.828,20.629 C7.761,20.664 7.663,20.727 7.616,20.630 C7.433,20.367 7.173,20.180 6.927,19.980 C8.378,17.256 9.843,14.538 11.278,11.807 C11.744,10.931 12.195,10.048 12.671,9.179 C12.841,9.319 13.000,9.473 13.166,9.617 C13.170,8.995 13.160,8.374 13.178,7.753 C13.594,7.910 14.035,8.035 14.485,7.984 C15.350,7.922 16.135,7.360 16.507,6.587 C16.674,6.620 16.831,6.689 16.992,6.745 C19.370,7.595 21.738,8.472 24.102,9.360 C24.985,9.702 25.878,10.023 26.756,10.381 C26.609,10.566 26.433,10.727 26.284,10.912 C26.915,10.898 27.543,10.836 28.174,10.829 C28.095,11.110 28.016,11.395 28.017,11.689 C28.001,11.975 28.072,12.255 28.128,12.533 ZM7.088,23.305 C6.525,23.989 5.462,24.182 4.694,23.736 C4.004,23.363 3.603,22.539 3.744,21.769 C3.868,20.984 4.538,20.325 5.328,20.207 C6.185,20.054 7.095,20.575 7.401,21.383 C7.659,22.017 7.538,22.787 7.088,23.305 ZM6.324,21.061 C6.020,20.853 5.622,20.797 5.269,20.902 C4.719,21.053 4.332,21.620 4.392,22.183 C4.429,22.776 4.949,23.292 5.547,23.318 C6.164,23.370 6.765,22.894 6.857,22.287 C6.941,21.821 6.723,21.320 6.324,21.061 Z" class="cls-1"/>
</svg>
